<svg xmlns="http://www.w3.org/2000/svg" width="326.936" height="65.611" viewBox="0 0 326.936 65.611"><path d="M144.434,64.11l.967-13.532h.765l.969,13.532Zm-9.453-2.415,6.07-12.133.707.294-4.286,12.872ZM149.8,49.851l.708-.292,6.073,12.131-2.493,1.034ZM98.209,62.13A.944.944,0,0,1,97.626,62q-.158-.132-.158-.715V20a1.138,1.138,0,0,1,.105-.583q.107-.159.583-.159h2.385q.212,0,.212.8V61.494a1.558,1.558,0,0,1-.053.53.214.214,0,0,1-.212.105Zm42.175-1.535,3.126-11.467.535.1-1.484,11.8Zm7.123-11.363.527-.112,3.147,11.472L149,61.025Zm-90.054,10.2q-.425,0-.53-.185a1.448,1.448,0,0,1-.106-.662V29.747a2.7,2.7,0,0,1,.079-.742q.08-.266.5-.266h2.279q.583,0,.583.636V31.92A8.255,8.255,0,0,1,63.786,28.9a11.238,11.238,0,0,1,4.161-.742,5.8,5.8,0,0,1,5.273,3.073A16.116,16.116,0,0,1,75.048,39.5a21.966,21.966,0,0,1-.557,5.326A10.655,10.655,0,0,1,72.955,48.4a5.778,5.778,0,0,1-2.333,1.987,7.062,7.062,0,0,1-2.941.61,11.234,11.234,0,0,1-4.081-.662,8.771,8.771,0,0,1-3.339-2.571V58.579q0,.848-.266.848ZM63.52,30.86a5.474,5.474,0,0,0-1.7,1.457,5.742,5.742,0,0,0-.954,1.882,6.864,6.864,0,0,0-.292,1.908v8.32a2.9,2.9,0,0,0,.371,1.22A5.982,5.982,0,0,0,62.01,47.1a6.143,6.143,0,0,0,1.7,1.219,5.027,5.027,0,0,0,2.28.5,4.528,4.528,0,0,0,4.028-1.961,9.334,9.334,0,0,0,1.325-5.3v-3.55A10.17,10.17,0,0,0,69.96,32.4a4.408,4.408,0,0,0-3.921-2.12A5.054,5.054,0,0,0,63.52,30.86ZM132.585,56.9l7.274-9.4.457.293-5.888,10.339Zm18.651-9.1.445-.307,7.3,9.4-1.848,1.231Zm-24.065,8.046,10.253-8.888.539.543-8.884,10.252ZM153.6,47.493l.541-.542,10.254,8.886-1.909,1.906Zm95.992,7.486a3.559,3.559,0,0,1-1.239-.54,2.9,2.9,0,0,1-.9-1.02,3.343,3.343,0,0,1-.35-1.62V44.38q0-.381.26-.381h1.04a.4.4,0,0,1,.311.1.587.587,0,0,1,.09.38v6.76a2.485,2.485,0,0,0,.589,1.78,2.042,2.042,0,0,0,1.55.62,2.909,2.909,0,0,0,1.08-.17,1.51,1.51,0,0,0,.661-.491,1.99,1.99,0,0,0,.34-.77,4.684,4.684,0,0,0,.1-1.011V44.38q0-.381.26-.381h1.08a.37.37,0,0,1,.29.1.587.587,0,0,1,.09.38v7.06a4.107,4.107,0,0,1-.37,1.89,2.862,2.862,0,0,1-.941,1.09,3.243,3.243,0,0,1-1.26.5,7.745,7.745,0,0,1-1.33.12A5.952,5.952,0,0,1,249.59,54.979Zm-37.62-.149a3.2,3.2,0,0,1-1.3-.79,2.7,2.7,0,0,1-.65-1.17,5.545,5.545,0,0,1-.18-1.45V48a8.884,8.884,0,0,1,.139-1.6,2.831,2.831,0,0,1,.62-1.33,3.273,3.273,0,0,1,1.381-.91,6.937,6.937,0,0,1,2.4-.34,7.826,7.826,0,0,1,1.35.1,6.208,6.208,0,0,1,.97.239,3.15,3.15,0,0,1,.62.28,1.943,1.943,0,0,1,.3.221q.061.059,0,.27a2.779,2.779,0,0,1-.17.44,1.727,1.727,0,0,1-.249.39c-.094.107-.167.14-.221.1a3.963,3.963,0,0,0-.859-.42,4.809,4.809,0,0,0-1.641-.22,5.413,5.413,0,0,0-1.27.13,1.931,1.931,0,0,0-.88.461,1.985,1.985,0,0,0-.519.869,4.684,4.684,0,0,0-.17,1.381v3.2a2.81,2.81,0,0,0,.55,1.96,2.531,2.531,0,0,0,1.89.58,2.716,2.716,0,0,0,1.61-.39,1.781,1.781,0,0,0,.53-1.51V50.5a.583.583,0,0,0-.04-.221c-.026-.067-.113-.1-.26-.1l-1.08-.02a.728.728,0,0,1-.239-.03c-.054-.021-.08-.09-.08-.211v-.76a.514.514,0,0,1,.03-.18c.02-.053.084-.08.19-.08h2.44a.975.975,0,0,1,.581.11.731.731,0,0,1,.12.51v2.1a8.581,8.581,0,0,1-.09,1.24,2.446,2.446,0,0,1-.46,1.12,2.629,2.629,0,0,1-1.13.82,5.487,5.487,0,0,1-2.08.32A6.643,6.643,0,0,1,211.97,54.83Zm87.8.07a3.477,3.477,0,0,1-1.13-.42c-.04-.027-.059-.12-.059-.28a3.568,3.568,0,0,1,.04-.51,2.076,2.076,0,0,1,.121-.47c.053-.133.113-.193.18-.18q.32.1.969.319a7.288,7.288,0,0,0,2.86.14,2.822,2.822,0,0,0,.82-.26,1.463,1.463,0,0,0,.55-.47,1.258,1.258,0,0,0,.2-.73,1.538,1.538,0,0,0-.481-1.16,5.178,5.178,0,0,0-1.74-.92,12.752,12.752,0,0,1-1.17-.52,4.054,4.054,0,0,1-.96-.671,2.9,2.9,0,0,1-.65-.92,3,3,0,0,1-.24-1.25,2.794,2.794,0,0,1,.221-1.1,2.269,2.269,0,0,1,.7-.9,3.6,3.6,0,0,1,1.219-.6,6.218,6.218,0,0,1,1.76-.22q.72,0,1.2.04c.32.027.58.057.78.09a4.553,4.553,0,0,1,.48.1c.12.033.22.063.3.09s.121.12.121.28a1.915,1.915,0,0,1-.07.5,1.966,1.966,0,0,1-.19.47q-.12.211-.24.17-.34-.1-.97-.22a6.65,6.65,0,0,0-1.25-.12,2.946,2.946,0,0,0-1.769.39,1.251,1.251,0,0,0-.491,1.03,1.291,1.291,0,0,0,.52,1.08,6.165,6.165,0,0,0,1.66.8,6.388,6.388,0,0,1,2.37,1.44,3.238,3.238,0,0,1,.41,3.58,2.787,2.787,0,0,1-.949.96,3.934,3.934,0,0,1-1.35.5,8.572,8.572,0,0,1-1.56.14A9.8,9.8,0,0,1,299.77,54.9Zm-79.16,0a3.47,3.47,0,0,1-1.13-.42c-.04-.027-.06-.12-.06-.28a3.446,3.446,0,0,1,.041-.51,2.076,2.076,0,0,1,.12-.47c.053-.133.113-.193.18-.18q.32.1.97.319a7.288,7.288,0,0,0,2.86.14,2.831,2.831,0,0,0,.82-.26,1.463,1.463,0,0,0,.55-.47,1.257,1.257,0,0,0,.2-.73,1.54,1.54,0,0,0-.48-1.16,5.185,5.185,0,0,0-1.741-.92q-.62-.24-1.17-.52a4.047,4.047,0,0,1-.959-.671,2.9,2.9,0,0,1-.651-.92,3.016,3.016,0,0,1-.239-1.25,2.794,2.794,0,0,1,.22-1.1,2.269,2.269,0,0,1,.7-.9,3.6,3.6,0,0,1,1.22-.6,6.215,6.215,0,0,1,1.759-.22q.72,0,1.2.04t.78.09a4.551,4.551,0,0,1,.48.1c.121.033.221.063.3.09s.12.12.12.28a1.913,1.913,0,0,1-.07.5,1.965,1.965,0,0,1-.19.47c-.08.14-.16.2-.239.17q-.34-.1-.97-.22a6.665,6.665,0,0,0-1.25-.12,2.949,2.949,0,0,0-1.77.39,1.251,1.251,0,0,0-.49,1.03,1.289,1.289,0,0,0,.52,1.08,6.171,6.171,0,0,0,1.66.8,6.388,6.388,0,0,1,2.37,1.44,3.237,3.237,0,0,1,.41,3.58,2.8,2.8,0,0,1-.95.96,3.933,3.933,0,0,1-1.35.5,8.564,8.564,0,0,1-1.56.14A9.8,9.8,0,0,1,220.61,54.9Zm44.33.139-.98-.02a.564.564,0,0,1-.33-.08,1.114,1.114,0,0,1-.249-.3l-4.58-7.3q-.181-.281-.26-.31c-.053-.02-.08.09-.08.33v7.12a.942.942,0,0,1-.06.41c-.04.074-.133.111-.28.111h-.88a1.057,1.057,0,0,1-.27-.041c-.1-.026-.149-.16-.149-.4V44.539a2.613,2.613,0,0,1,.03-.27.224.224,0,0,1,.25-.21h.96a1.729,1.729,0,0,1,.3.02.675.675,0,0,1,.16.05.242.242,0,0,1,.1.1,1.357,1.357,0,0,0,.1.15l4.6,7.42c.107.187.19.266.25.24s.09-.187.09-.481v-7.02a1.469,1.469,0,0,1,.04-.329.168.168,0,0,1,.2-.15h1.06c.147,0,.237.037.27.11a1.051,1.051,0,0,1,.05.391v9.92a1.182,1.182,0,0,1-.06.44.22.22,0,0,1-.228.122Zm-57.34,0-.98-.02a.564.564,0,0,1-.33-.08,1.114,1.114,0,0,1-.249-.3l-4.58-7.3q-.181-.281-.26-.31c-.053-.02-.08.09-.08.33v7.12a.941.941,0,0,1-.06.41c-.04.074-.133.111-.28.111h-.88a1.046,1.046,0,0,1-.27-.041c-.1-.026-.149-.16-.149-.4V44.539a2.614,2.614,0,0,1,.03-.27.224.224,0,0,1,.25-.21h.959a1.733,1.733,0,0,1,.3.02.675.675,0,0,1,.16.05.242.242,0,0,1,.1.1,1.355,1.355,0,0,0,.1.15l4.6,7.42c.106.187.19.266.25.24s.09-.187.09-.481v-7.02a1.418,1.418,0,0,1,.04-.329.168.168,0,0,1,.2-.15h1.06c.147,0,.237.037.27.11a1.051,1.051,0,0,1,.05.391v9.92a1.2,1.2,0,0,1-.06.44.22.22,0,0,1-.228.122ZM324.26,55a.265.265,0,0,1-.3-.3v-4.22l-3.5-6.14c-.094-.133-.113-.217-.06-.25a.564.564,0,0,1,.28-.05h1.22a.4.4,0,0,1,.24.06.962.962,0,0,1,.2.259l2.6,4.6,1.28-2.32q.56-1.021,1.28-2.3a1.368,1.368,0,0,1,.17-.229.465.465,0,0,1,.31-.07h.96c.174,0,.28.023.32.07s.006.157-.1.329l-1.721,3.04q-.32.581-.63,1.121t-.56.959q-.25.42-.39.68l-.14.26v4.16q0,.34-.36.34Zm-9.62,0c-.173,0-.27-.027-.29-.08a1.683,1.683,0,0,1-.03-.42V45.72c0-.121-.023-.2-.07-.23a.556.556,0,0,0-.29-.05h-2.6a.432.432,0,0,1-.28-.059.216.216,0,0,1-.06-.16V44.3q0-.161.1-.2a1,1,0,0,1,.34-.041h7.46a2.08,2.08,0,0,1,.329.02c.074.014.111.074.111.18v.96a.244.244,0,0,1-.05.16q-.05.059-.27.059h-2.62a.609.609,0,0,0-.31.05c-.047.033-.07.11-.07.23V54.5a.879.879,0,0,1-.06.4c-.04.067-.147.1-.319.1Zm-6.179,0a.4.4,0,0,1-.3-.09.51.51,0,0,1-.08-.33V44.38c0-.147.027-.24.08-.28a.683.683,0,0,1,.36-.06h1c.147,0,.237.03.27.09a.751.751,0,0,1,.05.33v10.2a.436.436,0,0,1-.06.26c-.04.053-.133.08-.28.08Zm-12.94,0c-.147,0-.24-.033-.28-.1a3.438,3.438,0,0,1-.16-.32l-2.021-4a.275.275,0,0,0-.259-.14H291.16c-.08,0-.126.014-.139.04a.587.587,0,0,0-.02.2v3.839a.647.647,0,0,1-.08.381.371.371,0,0,1-.3.1h-1.08c-.173,0-.27-.043-.29-.131a2.021,2.021,0,0,1-.03-.41V44.439a.516.516,0,0,1,.07-.31c.046-.06.149-.09.31-.09h3.22a4.884,4.884,0,0,1,3.14.84,2.887,2.887,0,0,1,1.02,2.36,2.73,2.73,0,0,1-.2,1.06,2.818,2.818,0,0,1-.52.83,3.264,3.264,0,0,1-.69.581,2.459,2.459,0,0,1-.689.31.606.606,0,0,0-.18.06c-.013.014,0,.067.04.16l2.18,4.22a.782.782,0,0,1,.13.429q-.03.111-.27.111Zm-4.47-9.5a.332.332,0,0,0-.049.18v3.04c0,.147.02.233.059.26a.553.553,0,0,0,.26.04h1.92a2.237,2.237,0,0,0,1.41-.44,1.587,1.587,0,0,0,.57-1.34,1.731,1.731,0,0,0-.2-.869,1.639,1.639,0,0,0-.54-.571,2.254,2.254,0,0,0-.79-.31,4.81,4.81,0,0,0-.95-.09h-1.46A.3.3,0,0,0,291.05,45.5ZM281.78,55a.378.378,0,0,1-.26-.09.435.435,0,0,1-.1-.33V44.56a1.322,1.322,0,0,1,.04-.36q.039-.14.259-.14h5.56a.892.892,0,0,1,.35.041q.07.039.07.2v.88a.2.2,0,0,1-.19.21,3.639,3.639,0,0,1-.53.03h-3.5a.558.558,0,0,0-.34.07.219.219,0,0,0-.08.17v2.58a.387.387,0,0,0,.08.29.43.43,0,0,0,.28.07h3.12a1.033,1.033,0,0,1,.42.049c.053.033.067.1.04.21l-.1.841a.283.283,0,0,1-.28.26c-.16.013-.313.02-.46.02h-2.62a.543.543,0,0,0-.35.08.33.33,0,0,0-.09.26v2.939c0,.174.04.27.12.291a1.5,1.5,0,0,0,.34.03h3.8a1.17,1.17,0,0,1,.45.06.237.237,0,0,1,.13.239v.86a.21.21,0,0,1-.1.21.484.484,0,0,1-.22.05Zm-7.48,0a.505.505,0,0,1-.35-.09.535.535,0,0,1-.13-.27l-3.261-10.1q-.1-.359.021-.429a.586.586,0,0,1,.3-.07h1.08c.147,0,.237.026.27.08a1.742,1.742,0,0,1,.13.319l2.66,8.42,2.64-8.42a1.794,1.794,0,0,1,.13-.319.231.231,0,0,1,.21-.08h1a.642.642,0,0,1,.32.06c.067.04.073.126.02.259l-3.28,10.3a.6.6,0,0,1-.15.26.471.471,0,0,1-.311.08Zm-6.84,0a.394.394,0,0,1-.3-.09.5.5,0,0,1-.08-.33V44.38c0-.147.026-.24.08-.28a.681.681,0,0,1,.36-.06h1c.147,0,.237.03.27.09a.754.754,0,0,1,.049.33v10.2a.444.444,0,0,1-.059.26c-.04.053-.133.08-.28.08Zm-31.98,0c-.174,0-.27-.027-.291-.08a1.684,1.684,0,0,1-.03-.42V45.72c0-.121-.023-.2-.07-.23a.556.556,0,0,0-.29-.05h-2.6a.434.434,0,0,1-.28-.059.219.219,0,0,1-.06-.16V44.3c0-.107.033-.174.1-.2a1,1,0,0,1,.339-.041h7.46a2.1,2.1,0,0,1,.33.02c.073.014.11.074.11.18v.96a.244.244,0,0,1-.049.16q-.05.059-.27.059H237.26a.614.614,0,0,0-.31.05c-.047.033-.07.11-.07.23V54.5a.9.9,0,0,1-.059.4c-.04.067-.147.1-.32.1Zm-6.18,0a.394.394,0,0,1-.3-.09.5.5,0,0,1-.08-.33V44.38c0-.147.026-.24.08-.28a.681.681,0,0,1,.36-.06h1c.147,0,.237.03.27.09a.754.754,0,0,1,.049.33v10.2a.443.443,0,0,1-.059.26c-.04.053-.133.08-.28.08Zm-32.36,0q-.22,0-.259-.07a2.067,2.067,0,0,1-.121-.311l-.679-2.1h-3.92l-.66,2.1a1.043,1.043,0,0,1-.14.311.346.346,0,0,1-.26.07h-1.12c-.107,0-.17-.023-.19-.07a.926.926,0,0,1,.07-.41l3.2-9.98a1.231,1.231,0,0,1,.2-.37.51.51,0,0,1,.381-.11h1.139a.507.507,0,0,1,.38.11,1.21,1.21,0,0,1,.2.37l3.2,9.98q.12.36,0,.42a.783.783,0,0,1-.34.06Zm-4.559-3.8h3.08l-1.52-5ZM186.7,55c-.147,0-.24-.033-.28-.1a3.441,3.441,0,0,1-.16-.32l-2.021-4a.276.276,0,0,0-.26-.14h-1.64c-.08,0-.127.014-.14.04a.579.579,0,0,0-.021.2v3.839a.648.648,0,0,1-.079.381.371.371,0,0,1-.3.1h-1.08c-.173,0-.27-.043-.29-.131a2.021,2.021,0,0,1-.03-.41V44.439a.523.523,0,0,1,.069-.31c.047-.06.15-.09.311-.09H184a4.884,4.884,0,0,1,3.14.84,2.887,2.887,0,0,1,1.02,2.36,2.73,2.73,0,0,1-.2,1.06,2.819,2.819,0,0,1-.52.83,3.265,3.265,0,0,1-.69.581,2.459,2.459,0,0,1-.689.31.606.606,0,0,0-.18.06c-.013.014,0,.067.04.16l2.18,4.22a.782.782,0,0,1,.13.429q-.031.111-.27.111Zm-4.47-9.5a.333.333,0,0,0-.05.18v3.04c0,.147.021.233.06.26a.553.553,0,0,0,.26.04h1.92a2.237,2.237,0,0,0,1.41-.44,1.587,1.587,0,0,0,.57-1.34,1.731,1.731,0,0,0-.2-.869,1.639,1.639,0,0,0-.54-.571,2.254,2.254,0,0,0-.79-.31,4.809,4.809,0,0,0-.949-.09h-1.46A.3.3,0,0,0,182.23,45.5Zm-55.438,5,10.321-5.9.309.445-9.4,7.294Zm27.343-5.442.292-.456,10.338,5.888-1.234,1.844Zm-115.6,5.76a7.015,7.015,0,0,1-2.57-1.935,9.912,9.912,0,0,1-1.829-3.471,17.037,17.037,0,0,1-.688-5.168q0-5.405,1.961-8.533a6.21,6.21,0,0,1,5.565-3.127,13.756,13.756,0,0,1,2.412.185,6.541,6.541,0,0,1,1.855.609A7.057,7.057,0,0,1,46.8,30.489a17.746,17.746,0,0,1,1.537,1.642V29.747c0-.353.07-.53.212-.53h2.438q.583,0,.662.159a1.455,1.455,0,0,1,.08.583V49.887a4.818,4.818,0,0,1-.053.848c-.036.177-.194.265-.477.265H48.813a.521.521,0,0,1-.372-.106.974.974,0,0,1-.105-.583V48.35a4.729,4.729,0,0,1-1.484,1.537,8.543,8.543,0,0,1-2.093,1.06,9.559,9.559,0,0,1-3.26.477A7.507,7.507,0,0,1,38.531,50.815Zm0-18.338q-1.378,1.775-1.378,5.856v3.6a9.585,9.585,0,0,0,1.325,5.379A4.512,4.512,0,0,0,42.506,49.3a4.634,4.634,0,0,0,2.279-.556,6.163,6.163,0,0,0,1.7-1.352,6.664,6.664,0,0,0,1.059-1.616,3.421,3.421,0,0,0,.372-1.3V36.69a6.7,6.7,0,0,0-.292-1.776,6.316,6.316,0,0,0-.954-1.961,6.1,6.1,0,0,0-1.7-1.59,4.573,4.573,0,0,0-2.517-.662A4.675,4.675,0,0,0,38.531,32.477ZM26.182,51q-.583,0-.715-.159a1.188,1.188,0,0,1-.132-.689V28.634a12.418,12.418,0,0,0-.053-1.776q-.053-.08-.795,1.3-2.809,4.5-4.4,7t-2.332,3.684q-.743,1.192-.928,1.431c-.123.158-.2.239-.239.239h-.9c-.035,0-.106-.071-.212-.212s-.407-.618-.9-1.431-1.254-2.075-2.279-3.789S9.841,30.913,8,27.733q-.8-1.112-.848-.742A15.311,15.311,0,0,0,7.1,28.634V50.523a.642.642,0,0,1-.079.371c-.053.07-.2.106-.451.106H4.24a1.366,1.366,0,0,1-.662-.133q-.239-.132-.239-.715V22.8a1.048,1.048,0,0,1,.132-.662.625.625,0,0,1,.451-.133H6.784a1.137,1.137,0,0,1,.45.08,1.4,1.4,0,0,1,.451.4l7.9,12.4a.876.876,0,0,0,.716.451.954.954,0,0,0,.822-.5h-.053q1.855-3.021,3.816-6.122T24.7,22.592a1.276,1.276,0,0,1,.9-.583h3.181q.265,0,.292.159a3.248,3.248,0,0,1,.026.477V50.47c0,.353-.141.53-.424.53Zm96.009-3.543,12.875-4.286.292.707L123.226,49.95ZM156.2,43.863l.291-.706,12.875,4.283-1.033,2.494ZM123.89,42.368l11.791-1.5.114.528-11.471,3.146Zm31.874-.965.1-.533,11.8,1.483-.435,2.18Zm-34.958-3.6,13.532.966v.765l-13.532.965Zm36.408,1.715v-.764l13.532-.969v2.7Zm-33.325-3.589.435-2.179,11.462,3.128-.1.531Zm31.865.958,11.471-3.151.434,2.177-11.794,1.482Zm-33.568-6.045,1.033-2.495,12.131,6.074-.29.7ZM156.192,34.4l12.131-6.074,1.033,2.492-12.873,4.289ZM297.16,34.14a2.2,2.2,0,0,1-1.68-.68,1.933,1.933,0,0,1-.41-.57,4.876,4.876,0,0,1-.211-.55,3.139,3.139,0,0,1-.1-.581V26.82a2.9,2.9,0,0,1,.76-2.081,2.682,2.682,0,0,1,1.07-.67,5.113,5.113,0,0,1,1.45-.27.914.914,0,0,1,.18.02.612.612,0,0,1,.26.18c.093.107.18.2.26.29s.193.2.339.35a.205.205,0,0,0,.34,0l.24-.239q.1-.1.2-.211c.067-.073.127-.143.18-.21a.427.427,0,0,1,.25-.17c.073-.006.137-.01.19-.01a5.125,5.125,0,0,1,1.45.27,2.688,2.688,0,0,1,1.07.67,2.9,2.9,0,0,1,.76,2.081v6.919a.23.23,0,0,1-.26.26h-1.02a.23.23,0,0,1-.26-.26V26.82a2.238,2.238,0,0,0-.09-.45,1.223,1.223,0,0,0-.68-.77,2.439,2.439,0,0,0-.73-.2.468.468,0,0,0-.18-.01.531.531,0,0,0-.281.149l-.84.72a.265.265,0,0,1-.38,0c-.027-.026-.077-.073-.15-.139l-.229-.211-.23-.21c-.073-.067-.13-.12-.17-.16a.525.525,0,0,0-.28-.149.467.467,0,0,0-.18.01,2.337,2.337,0,0,0-.72.2,1.413,1.413,0,0,0-.45.339,1.077,1.077,0,0,0-.229.428,1.754,1.754,0,0,0-.06.449v4.707a1.966,1.966,0,0,0,.049.438.819.819,0,0,0,.23.4.713.713,0,0,0,.18.12.843.843,0,0,0,.36.059h.44a1.324,1.324,0,0,0,.22-.02c.147,0,.234.087.26.264v.993a.216.216,0,0,1-.059.192.325.325,0,0,1-.18.112l-.24.041a1.188,1.188,0,0,1-.22.02Zm-11.44,0h-.1a2.2,2.2,0,0,1-1.68-.66,1.948,1.948,0,0,1-.409-.571,4.646,4.646,0,0,1-.211-.55,3.146,3.146,0,0,1-.1-.58v-.76a2.541,2.541,0,0,1,1.02-2.1,4.219,4.219,0,0,1,2.741-.8h2.74c.16,0,.24-.086.24-.26V26.82a2.336,2.336,0,0,0-.05-.42,1.056,1.056,0,0,0-.3-.52,1.947,1.947,0,0,0-.77-.44,4.58,4.58,0,0,0-1.44-.18,5.5,5.5,0,0,0-1.69.22,9.275,9.275,0,0,0-1.01.38.3.3,0,0,1-.2.01.207.207,0,0,1-.139-.13l-.481-.7a.3.3,0,0,1-.059-.182.145.145,0,0,1,.08-.142q.18-.1.509-.254a7.39,7.39,0,0,1,.8-.3,8.559,8.559,0,0,1,1.06-.264,6.926,6.926,0,0,1,1.29-.112,7.08,7.08,0,0,1,1.49.152,3.571,3.571,0,0,1,1.21.475.659.659,0,0,0,.18.1.488.488,0,0,0,.34,0,5.015,5.015,0,0,0,.68-.3,3.636,3.636,0,0,0,.4-.284.443.443,0,0,1,.13-.081c.059-.027.136.007.229.1l.72.729c.107.108.131.185.07.233s-.11.084-.15.111a3.469,3.469,0,0,1-.58.365,3.573,3.573,0,0,1-.45.169,3.79,3.79,0,0,1-.47.111c-.013,0-.021.02-.021.059s.05.15.111.37a2.8,2.8,0,0,1,.09.731v6.94c0,.159-.087.239-.26.239h-1.06c-.174,0-.26-.08-.26-.239V29.64c0-.174-.08-.26-.24-.26H287.1a3.251,3.251,0,0,0-1.7.38,1.17,1.17,0,0,0-.62,1.04v.44c0,.106,0,.213.011.319s.01.174.01.2a.864.864,0,0,0,.22.59.759.759,0,0,0,.6.25h.419a1.439,1.439,0,0,0,.221-.02c.173,0,.26.079.26.239l.02.98a.256.256,0,0,1-.24.28c-.133.014-.247.027-.339.041a.436.436,0,0,1-.13.02Zm-17.46-.09a6.98,6.98,0,0,1-.88-.221,6.17,6.17,0,0,1-.7-.27c-.2-.093-.346-.167-.44-.22a.386.386,0,0,1-.2-.4l.18-.98a.164.164,0,0,1,.09-.13.175.175,0,0,1,.15.01q.32.181.99.49a3.872,3.872,0,0,0,1.63.31,3.159,3.159,0,0,0,1.8-.39,1.178,1.178,0,0,0,.54-.99,1.28,1.28,0,0,0-.47-1.02,4.823,4.823,0,0,0-1.61-.761q-.281-.08-.83-.28a5.861,5.861,0,0,1-1.12-.56,3.955,3.955,0,0,1-.99-.89,2.013,2.013,0,0,1-.419-1.29v-.1a2.208,2.208,0,0,1,.36-1.229,2.6,2.6,0,0,1,.869-.79,3.78,3.78,0,0,1,1.19-.42,7.586,7.586,0,0,1,1.361-.12,4.561,4.561,0,0,1,.83.08c.286.053.554.113.8.18s.47.133.67.2.346.12.44.16a.135.135,0,0,1,.1.13.951.951,0,0,1-.02.19l-.18.86c-.027.147-.12.186-.28.12a5.005,5.005,0,0,0-.79-.3,5.423,5.423,0,0,0-1.35-.22c-.186,0-.42.006-.7.02a3.149,3.149,0,0,0-.8.139,1.777,1.777,0,0,0-.65.36.863.863,0,0,0-.27.68,1.052,1.052,0,0,0,.56.94,8.881,8.881,0,0,0,1.68.72,8.56,8.56,0,0,1,1.54.651,4.051,4.051,0,0,1,.99.75,2.345,2.345,0,0,1,.52.85,2.994,2.994,0,0,1,.15.95,2.5,2.5,0,0,1-.2.92,2.756,2.756,0,0,1-.65.94,3.576,3.576,0,0,1-1.16.73,4.592,4.592,0,0,1-1.73.29A5.388,5.388,0,0,1,268.26,34.05Zm-20.14.09h-.1a2.2,2.2,0,0,1-1.68-.66,2.34,2.34,0,0,1-.64-1.12,2.256,2.256,0,0,1-.08-.58V31a2.585,2.585,0,0,1,.26-1.15,2.834,2.834,0,0,1,.74-.93,4.3,4.3,0,0,1,2.76-.8h2.72a.23.23,0,0,0,.26-.26V26.82a2.32,2.32,0,0,0-.049-.42,1.051,1.051,0,0,0-.3-.52,1.947,1.947,0,0,0-.77-.44,4.577,4.577,0,0,0-1.44-.18,5.5,5.5,0,0,0-1.69.22,9.425,9.425,0,0,0-1.01.38.257.257,0,0,1-.2,0,.254.254,0,0,1-.14-.12l-.48-.72a.291.291,0,0,1-.06-.18.144.144,0,0,1,.08-.14q.18-.1.51-.25a7.714,7.714,0,0,1,.789-.3,7.4,7.4,0,0,1,1.05-.25,7.745,7.745,0,0,1,1.29-.1,8.537,8.537,0,0,1,1.06.07,4.434,4.434,0,0,1,1.07.27,3.485,3.485,0,0,1,.93.54,2.33,2.33,0,0,1,.661.88,2.949,2.949,0,0,1,.28,1.26v6.919a.23.23,0,0,1-.26.26h-1.06a.23.23,0,0,1-.26-.26v-4.1a.23.23,0,0,0-.26-.26h-2.6a3.313,3.313,0,0,0-1.7.37,1.145,1.145,0,0,0-.62,1.031v.46c0,.12,0,.229.01.329s.01.164.01.19a.891.891,0,0,0,.21.59.754.754,0,0,0,.61.25h.42a1.428,1.428,0,0,0,.22-.02c.174,0,.26.079.26.239l.02.98a.256.256,0,0,1-.239.28q-.2.02-.34.041a.436.436,0,0,1-.131.02Zm-37.21-.11q-.49-.07-.97-.17a.238.238,0,0,1-.16-.121.215.215,0,0,1-.02-.2l.22-.74a.252.252,0,0,1,.26-.2,7.209,7.209,0,0,0,1.48.16,2.316,2.316,0,0,0,1.309-.34,2.219,2.219,0,0,0,.78-.9,4.281,4.281,0,0,0,.37-1.26,10.048,10.048,0,0,0,.1-1.42,11.269,11.269,0,0,0-.08-1.33,3.647,3.647,0,0,0-.35-1.21,2.259,2.259,0,0,0-.779-.88,2.4,2.4,0,0,0-1.35-.34,7.067,7.067,0,0,0-1.371.14,4.969,4.969,0,0,0-1.329.46.282.282,0,0,1-.4-.1l-.4-.6q-.14-.2.08-.36c.04-.027.153-.086.339-.18a6.565,6.565,0,0,1,.731-.3,7.28,7.28,0,0,1,1.09-.28,7.716,7.716,0,0,1,1.419-.121,3.619,3.619,0,0,1,2.981,1.281,4.351,4.351,0,0,1,.75,1.58,8.8,8.8,0,0,1,.25,2.24,6.363,6.363,0,0,1-1,3.88,3.477,3.477,0,0,1-2.981,1.38A6.826,6.826,0,0,1,210.911,34.03Zm46.13-.87a2.828,2.828,0,0,1-.79-1.09,3.392,3.392,0,0,1-.27-1.31,2.365,2.365,0,0,1,.34-1.319,4.045,4.045,0,0,1,.581-.741c.08-.079.12-.133.12-.159s-.04-.087-.12-.18a3.9,3.9,0,0,1-.52-.72,2.337,2.337,0,0,1-.3-1.22,2.452,2.452,0,0,1,.29-1.23,2.576,2.576,0,0,1,.83-.869,2.723,2.723,0,0,1,1.22-.46,3.1,3.1,0,0,1,1.18.059l.18.09q.1.05.1.27c-.013.147-.02.27-.02.37v.371c0,.133-.033.206-.1.22a.84.84,0,0,1-.159.02,2.547,2.547,0,0,0-1.45.28,1.187,1.187,0,0,0-.671.941,1.145,1.145,0,0,0,.19.859,1.582,1.582,0,0,0,.61.481,2.693,2.693,0,0,0,.74.21,4.905,4.905,0,0,0,.6.05c.106,0,.153.053.139.159a3.216,3.216,0,0,1-.049.35c-.033.193-.063.356-.09.49-.013.08-.04.123-.08.13a.562.562,0,0,1-.1.01,2.407,2.407,0,0,0-1.42.25,1.238,1.238,0,0,0-.6,1.19,1.563,1.563,0,0,0,.15.65,1.819,1.819,0,0,0,.45.6,2.315,2.315,0,0,0,.77.44,3.261,3.261,0,0,0,1.11.17q.7,0,1.33-.06a8.389,8.389,0,0,0,1.07-.16.684.684,0,0,0,.17-.069c.059-.033.09-.117.09-.25V24.2a.229.229,0,0,1,.259-.259h1.06a.229.229,0,0,1,.26.259v8.88a.286.286,0,0,1-.049.17.88.88,0,0,1-.09.11.313.313,0,0,1-.121.08,8.832,8.832,0,0,1-2.05.52,16.162,16.162,0,0,1-1.949.12A4.232,4.232,0,0,1,257.04,33.16Zm-28.08,0a2.829,2.829,0,0,1-.79-1.09,3.393,3.393,0,0,1-.27-1.31,2.365,2.365,0,0,1,.34-1.319,4.046,4.046,0,0,1,.581-.741c.08-.079.12-.133.12-.159s-.04-.087-.12-.18a3.9,3.9,0,0,1-.52-.72,2.337,2.337,0,0,1-.3-1.22,2.451,2.451,0,0,1,.29-1.23,2.576,2.576,0,0,1,.83-.869,2.723,2.723,0,0,1,1.22-.46,3.1,3.1,0,0,1,1.18.059l.18.09q.1.05.1.27c-.013.147-.02.27-.02.37v.371c0,.133-.033.206-.1.22a.84.84,0,0,1-.159.02,2.547,2.547,0,0,0-1.45.28,1.187,1.187,0,0,0-.671.941,1.145,1.145,0,0,0,.19.859,1.582,1.582,0,0,0,.61.481,2.692,2.692,0,0,0,.74.21,4.906,4.906,0,0,0,.6.05c.106,0,.153.053.14.159a3.216,3.216,0,0,1-.049.35c-.033.193-.063.356-.09.49-.013.08-.04.123-.08.13a.563.563,0,0,1-.1.01,2.407,2.407,0,0,0-1.42.25,1.238,1.238,0,0,0-.6,1.19,1.562,1.562,0,0,0,.15.65,1.818,1.818,0,0,0,.45.6,2.315,2.315,0,0,0,.77.44,3.261,3.261,0,0,0,1.11.17q.7,0,1.33-.06a8.389,8.389,0,0,0,1.07-.16.684.684,0,0,0,.17-.069c.059-.033.09-.117.09-.25V24.2a.229.229,0,0,1,.259-.259h1.06a.229.229,0,0,1,.26.259v8.88a.286.286,0,0,1-.049.17.969.969,0,0,1-.09.11.313.313,0,0,1-.121.08,8.832,8.832,0,0,1-2.05.52,16.162,16.162,0,0,1-1.949.12A4.232,4.232,0,0,1,228.96,33.16Zm-44.67.69a4.6,4.6,0,0,1-1.07-.52,5.382,5.382,0,0,1-.8-.65,4.583,4.583,0,0,1-.52-.6.489.489,0,0,1-.069-.09c-.021-.033-.031,0-.031.11v1.64c0,.174-.08.26-.239.26H180.5a.23.23,0,0,1-.26-.26V24.2a.229.229,0,0,1,.26-.259h1.06a.229.229,0,0,1,.259.259V29.08a3.921,3.921,0,0,0,.311,1.329,3.362,3.362,0,0,0,.74,1.091,3.456,3.456,0,0,0,1.14.73,4.007,4.007,0,0,0,1.51.27,1.662,1.662,0,0,0,.889-.18,1.621,1.621,0,0,0,.33-.26,2.273,2.273,0,0,0,.34-1.36V24.2a.229.229,0,0,1,.26-.259h1.039a.229.229,0,0,1,.26.259v6.5a4.408,4.408,0,0,1-.1.99,4.341,4.341,0,0,1-.22.71,2.785,2.785,0,0,1-.221.429l-.1.15a3.114,3.114,0,0,1-.859.71,3.051,3.051,0,0,1-1.52.37A4.074,4.074,0,0,1,184.29,33.85ZM276.9,34a.3.3,0,0,1-.32-.239l-2.7-9.06c-.053-.16.007-.266.18-.32l1-.28q.24-.08.32.18.66,2.241,1.18,4,.22.76.44,1.49t.4,1.31q.181.581.291.95c.073.247.116.383.13.41a.219.219,0,0,0,.18.2.576.576,0,0,0,.14.02,3.311,3.311,0,0,0,.9-.13,1.759,1.759,0,0,0,.83-.54,3.06,3.06,0,0,0,.6-1.17,7.2,7.2,0,0,0,.229-2.02,6.474,6.474,0,0,0-.12-1.34,6.153,6.153,0,0,0-.26-.921,2.589,2.589,0,0,0-.26-.529l-.12-.17a2.007,2.007,0,0,0-.53-.391,2.484,2.484,0,0,0-1.01-.229.137.137,0,0,1-.121-.1c-.013-.054-.026-.107-.04-.16l-.16-.84a.324.324,0,0,1,.01-.18c.02-.054.084-.08.19-.08a3.656,3.656,0,0,1,2.96,1.239,4.874,4.874,0,0,1,.68,1.4,7.271,7.271,0,0,1,.32,2.32,9.628,9.628,0,0,1-.18,1.9,4.578,4.578,0,0,1-.63,1.6,3.573,3.573,0,0,1-1.21,1.149,4.35,4.35,0,0,1-1.94.53Zm-33.78,0a.23.23,0,0,1-.26-.26V27.02a1.569,1.569,0,0,0-.87-1.53,2.5,2.5,0,0,0-.83-.25q-.46-.059-.88-.08a4.4,4.4,0,0,0-.8.07,5.088,5.088,0,0,0-.679.17,2.78,2.78,0,0,0-.641.26.261.261,0,0,1-.21.03.308.308,0,0,1-.17-.11l-.38-.6c-.107-.12-.086-.233.06-.34a6.914,6.914,0,0,1,.879-.38,6.619,6.619,0,0,1,1.011-.28,6.466,6.466,0,0,1,1.29-.12,4.752,4.752,0,0,1,1.89.319,2.96,2.96,0,0,1,1.13.81,2.775,2.775,0,0,1,.55,1.08,4.591,4.591,0,0,1,.149,1.13v6.539a.23.23,0,0,1-.26.26Zm-18.68,0a.23.23,0,0,1-.26-.26V27.22a3.439,3.439,0,0,0-.08-.78,1.547,1.547,0,0,0-.239-.56,1.776,1.776,0,0,0-.34-.27,1.6,1.6,0,0,0-.88-.19,4.014,4.014,0,0,0-1.51.27,3.372,3.372,0,0,0-1.139.74,3.5,3.5,0,0,0-.741,1.09,3.835,3.835,0,0,0-.31,1.32s0,.073-.01.22-.01.334-.01.561v4.119c0,.174-.08.26-.24.26h-1.06a.23.23,0,0,1-.26-.26v-9.5c0-.16.087-.24.26-.24h1.04c.173,0,.26.08.26.24v1.58c0,.107.01.147.03.121a.7.7,0,0,1,.07-.08,4.94,4.94,0,0,1,.52-.61,4.993,4.993,0,0,1,.8-.66,4.634,4.634,0,0,1,1.06-.52,3.967,3.967,0,0,1,1.32-.21,3.083,3.083,0,0,1,1.54.37,2.8,2.8,0,0,1,.84.71.71.71,0,0,0,.1.159,2.225,2.225,0,0,1,.221.43,4.769,4.769,0,0,1,.22.71,4.267,4.267,0,0,1,.1.98v6.52c0,.174-.079.26-.239.26Zm-18.32,0a.229.229,0,0,1-.259-.26V27.02a1.569,1.569,0,0,0-.87-1.53,2.5,2.5,0,0,0-.83-.25q-.46-.059-.88-.08a4.4,4.4,0,0,0-.8.07,5.1,5.1,0,0,0-.68.17,2.789,2.789,0,0,0-.64.26.262.262,0,0,1-.21.03.308.308,0,0,1-.17-.11l-.38-.6c-.107-.12-.086-.233.06-.34a6.914,6.914,0,0,1,.879-.38,6.591,6.591,0,0,1,1.011-.28,6.466,6.466,0,0,1,1.29-.12,4.752,4.752,0,0,1,1.89.319,2.949,2.949,0,0,1,1.13.81,2.777,2.777,0,0,1,.551,1.08,4.591,4.591,0,0,1,.149,1.13v6.539a.23.23,0,0,1-.26.26Zm-8.359,0a.361.361,0,0,1-.36-.22L196.1,31l-1.24-2.66a1.078,1.078,0,0,0-.09-.149c-.033-.047-.1-.057-.19-.031a7.982,7.982,0,0,1-.9.191q-.46.069-.94.11a.183.183,0,0,0-.16.09.339.339,0,0,0-.06.19v5.02a.212.212,0,0,1-.239.239h-1.06c-.174,0-.26-.08-.26-.239V24.2a.229.229,0,0,1,.26-.259h1.06c.159,0,.239.086.239.259V26.92c0,.173.087.247.26.22a7.223,7.223,0,0,0,.9-.1,6.1,6.1,0,0,0,.85-.24,3.9,3.9,0,0,0,.89-.46,4.647,4.647,0,0,0,1.049-1.02,2.947,2.947,0,0,0,.53-1.26c.014-.067.047-.1.1-.11a1.364,1.364,0,0,1,.18-.01h1.08c.121,0,.187.03.2.09a.705.705,0,0,1,.021.149,4.576,4.576,0,0,1-.18.76,5.024,5.024,0,0,1-2,2.36.564.564,0,0,0-.14.15.288.288,0,0,0,.02.229l2.82,6.1q.1.22-.159.22Zm-70.975-6.206,1.233-1.847,9.393,7.276-.3.452Zm27.346,5.443,9.394-7.3,1.232,1.845-10.33,5.885ZM127.16,22.443l1.909-1.908,8.886,10.253-.542.541Zm26.429,8.331,8.883-10.252,1.909,1.91-10.242,8.877Zm-21.016-9.385,1.844-1.232,5.9,10.316-.452.3Zm18.663,9.1,5.885-10.337,1.844,1.233-7.288,9.389Zm-5.76-1.182L141.823,27.3c-.082-.041-.177-.093-.307-.167l-.052-.035A8.484,8.484,0,0,1,139.289,14.3a2.233,2.233,0,0,1,.137,1.981,7.243,7.243,0,0,0,2.734,9.781c.094.055.173.1.252.139l3.259,1.793a.222.222,0,0,0,.207,0l3.245-1.786c.093-.051.172-.092.247-.136l.052-.029a7.241,7.241,0,0,0,2.708-9.752,2.23,2.23,0,0,1,.133-1.993,8.489,8.489,0,0,1-2.188,12.8.223.223,0,0,1-.04.026l-.06.033c-.076.043-.168.095-.263.144l-3.638,2a.633.633,0,0,1-.6,0Zm-5.825-9.475a6.077,6.077,0,0,1,.522-2.471c.048-.1.1-.206.144-.3l3.357-6.043a.21.21,0,0,0,0-.206L142.555,8.8a.621.621,0,0,1,0-.594l2.5-4.493a2.278,2.278,0,0,1,.305,1.956L143.844,8.4a.206.206,0,0,0,0,.206l1.118,2.014a.6.6,0,0,1,0,.592l-3.579,6.442a4.9,4.9,0,1,0,8.777-.019l-2.228-4.01a.612.612,0,0,1,0-.594l1.118-2.012a.206.206,0,0,0,0-.205l-.76-1.391a2.34,2.34,0,0,1,.289-2.014l1.76,3.211a.6.6,0,0,1,0,.592l-1.119,2.013a.217.217,0,0,0,0,.207l2.023,3.639c.047.094.094.191.136.288a6.125,6.125,0,1,1-11.728,2.474Zm6.119,3.691a3.484,3.484,0,0,1-.348-.017,3.67,3.67,0,0,1-1.276-.365,3.6,3.6,0,0,1-.982-.7,3.674,3.674,0,0,1-1.079-2.608,3.617,3.617,0,0,1,.06-.651c.028-.143.057-.283.1-.435l.043-.116a.033.033,0,0,1,0-.013,3.734,3.734,0,0,1,.232-.523.387.387,0,0,0,.014-.037l.254-.456c0-.009.007-.015.012-.027l3.567-6.419a.216.216,0,0,0,0-.2l-1.148-2.07a.591.591,0,0,1-.073-.373.565.565,0,0,1,.073-.22l1.835-3.3a.213.213,0,0,0,0-.205l-1.5-2.7A2.312,2.312,0,0,1,145.8,0l2.545,4.586a.624.624,0,0,1,0,.592l-1.837,3.3a.225.225,0,0,0,0,.206l1.148,2.069a.593.593,0,0,1,0,.592l-2.5,4.5a.386.386,0,0,0-.017.045l-1.48,2.663a2.466,2.466,0,0,0-.252.56,2.459,2.459,0,0,0,.617,2.46,2.447,2.447,0,0,0,1.747.725,2.336,2.336,0,0,0,.381-.034,2.469,2.469,0,0,0-.452-4.907l.654-1.174a3.693,3.693,0,0,1,3.06,3.089,3.478,3.478,0,0,1,.048.555,3.7,3.7,0,0,1-3.69,3.691ZM285.421,22.4c-.174,0-.247-.086-.22-.259l.16-.9a.273.273,0,0,1,.3-.26h6.66c.174,0,.247.086.22.26l-.16.9a.274.274,0,0,1-.3.259Zm-16.62,0a.265.265,0,0,1-.18-.069.219.219,0,0,1-.08-.17V20.8a.249.249,0,0,1,.08-.18.338.338,0,0,1,.18-.1l.7-.1a.174.174,0,0,1,.18.021.189.189,0,0,1,.08.159v.24q0,.24.259.24h4.56c.174,0,.247.08.22.239l-.16.841a.284.284,0,0,1-.3.239Zm-18.56,0a.265.265,0,0,1-.18-.069.216.216,0,0,1-.08-.17V20.8a.246.246,0,0,1,.08-.18.338.338,0,0,1,.18-.1l.7-.1a.174.174,0,0,1,.18.021.187.187,0,0,1,.08.159v.24c0,.16.087.24.26.24h4.56c.173,0,.247.08.22.239l-.159.841a.284.284,0,0,1-.3.239Zm-42.26,0c-.173,0-.247-.086-.22-.259l.159-.9a.274.274,0,0,1,.3-.26h6.66c.173,0,.247.086.22.26l-.16.9a.273.273,0,0,1-.3.259Z" transform="translate(-2.839 1.001)" fill="#444" stroke="rgba(0,0,0,0)" stroke-miterlimit="10" stroke-width="1"/></svg>