<svg xmlns="http://www.w3.org/2000/svg" width="197.932" height="254.093" viewBox="0 0 197.932 254.093"><g transform="translate(-127.807 -158.739)"><path d="M225.283,359.2l-3.83,53.629h10.7l-3.84-53.629Z" fill="#323a2f"/><path d="M257.773,346.973,292.99,387.6l7.566-7.557-40.641-35.217Z" fill="#323a2f"/><path d="M272.1,315.356l53.635,3.83v-10.7L272.1,312.329Z" fill="#323a2f"/><path d="M300.508,247.649l-7.563-7.568-35.208,40.632,2.18,2.12Z" fill="#323a2f"/><path d="M195.771,280.766l-35.217-40.635-7.566,7.561,40.635,35.217Z" fill="#323a2f"/><path d="M127.807,319.241l53.633-3.824v-3.033l-53.633-3.826Z" fill="#323a2f"/><path d="M153.031,380.09l7.563,7.561,35.21-40.634-2.138-2.15Z" fill="#323a2f"/><path d="M242.738,356.319l16.994,51.021,9.883-4.1-24.072-48.08Z" fill="#323a2f"/><path d="M268.082,332.588l48.088,24.064,4.094-9.884-51.029-16.977Z" fill="#323a2f"/><path d="M320.232,280.9l-4.1-9.879L268.055,295.1l1.156,2.8Z" fill="#323a2f"/><path d="M185.449,295.151l-48.08-24.072-4.1,9.888L184.3,297.944Z" fill="#323a2f"/><path d="M133.295,346.831l4.1,9.881,48.085-24.062-1.158-2.8Z" fill="#323a2f"/><path d="M183.988,403.262l9.875,4.1,16.986-51.02-2.8-1.164Z" fill="#323a2f"/><path d="M233.629,353.862l5.936,46.746,8.629-1.719L235.719,353.42Z" fill="#323a2f"/><path d="M259.9,337.313l37.246,28.834,4.889-7.309L261.06,335.5Z" fill="#323a2f"/><path d="M266.32,304.926l.439,2.016,46.741-5.877-1.719-8.629Z" fill="#323a2f"/><path d="M271.738,238.6l-23.326,40.971,1.746,1.129,28.889-37.213Z" fill="#323a2f"/><path d="M193.623,290.418l-37.23-28.838L151.5,268.9l40.933,23.312Z" fill="#323a2f"/><path d="M187.213,322.819l-.453-2.1-46.733,5.941,1.723,8.625Z" fill="#323a2f"/><path d="M203.32,347l-28.828,37.252,7.3,4.889,23.336-40.978Z" fill="#323a2f"/><path d="M248.412,348.2l23.369,40.9,7.32-4.881-28.928-37.236Z" fill="#323a2f"/><path d="M313.518,326.606l-46.783-5.877-.375,2.111,45.438,12.4Z" fill="#323a2f"/><path d="M259.889,290.471l1.172,1.7L302,268.85l-4.883-7.313Z" fill="#323a2f"/><path d="M205.121,279.518l-23.369-40.887-7.309,4.885,28.889,37.195Z" fill="#323a2f"/><path d="M140.021,301.131l46.738,5.863.414-2.105-45.427-12.395Z" fill="#323a2f"/><path d="M193.66,337.278l-1.223-1.76-40.906,23.364,4.889,7.308Z" fill="#323a2f"/><path d="M214.029,400.618l5.881-46.779-2.123-.385L205.4,398.9Z" fill="#323a2f"/><path d="M209.682,266.124l.207.139c.511.3.889.5,1.216.664l14.476,7.959a2.526,2.526,0,0,0,2.374.006l14.418-7.933c.375-.2.742-.4,1.043-.571l.238-.132a.917.917,0,0,0,.16-.1,33.645,33.645,0,0,0,8.672-50.737,8.838,8.838,0,0,0-.529,7.9,28.7,28.7,0,0,1-10.734,38.649c-.006,0-.2.114-.2.114-.3.177-.611.338-.98.541l-12.863,7.075a.873.873,0,0,1-.819,0l-12.918-7.1c-.311-.166-.627-.338-1-.556a28.707,28.707,0,0,1-10.84-38.765,8.845,8.845,0,0,0-.541-7.853,33.626,33.626,0,0,0,8.62,50.708" fill="#323a2f"/><path d="M231.857,177.678a.834.834,0,0,1,0,.813l-7.273,13.091a2.228,2.228,0,0,0-.288.873,2.336,2.336,0,0,0,.288,1.479l4.551,8.2a.853.853,0,0,1,0,.809L215,228.387c-.018.045-.034.072-.049.109l-1,1.807a1.492,1.492,0,0,1-.059.146,15.009,15.009,0,0,0-.918,2.073.11.11,0,0,0-.014.049l-.171.459a16.94,16.94,0,0,0-.4,1.724,14.366,14.366,0,0,0-.239,2.578,14.567,14.567,0,0,0,4.275,10.338,14.349,14.349,0,0,0,3.894,2.781,14.584,14.584,0,0,0,5.058,1.444c.459.045.923.068,1.38.068h.021A14.661,14.661,0,0,0,241.4,237.332a13.84,13.84,0,0,0-.191-2.2,14.7,14.7,0,0,0-12.125-12.242l-2.594,4.654a9.878,9.878,0,0,1,8.446,4.4,9.767,9.767,0,0,1-6.655,15.051,9.244,9.244,0,0,1-1.511.136,9.708,9.708,0,0,1-6.923-2.875,9.73,9.73,0,0,1-1.445-11.968l5.865-10.555a1.683,1.683,0,0,1,.066-.176l9.9-17.832a2.471,2.471,0,0,0,.289-.834,2.429,2.429,0,0,0-.289-1.516l-4.554-8.2a.9.9,0,0,1,0-.816l7.282-13.092a2.466,2.466,0,0,0,0-2.346l-10.087-18.175a9.162,9.162,0,0,0-.977,8.224Z" fill="#323a2f"/><path d="M218.441,201.584a.83.83,0,0,1,0,.816l-13.3,23.949c-.189.375-.383.78-.572,1.194a24.263,24.263,0,1,0,44.414-.014c-.162-.385-.353-.771-.539-1.144l-8.019-14.422a.865.865,0,0,1,0-.818l4.435-7.982a2.373,2.373,0,0,0,0-2.347L237.88,188.09a9.268,9.268,0,0,0-1.148,7.982l3.016,5.516a.812.812,0,0,1,0,.812l-4.43,7.975a2.415,2.415,0,0,0,0,2.353l8.832,15.894a19.435,19.435,0,1,1-34.787.075l14.187-25.534a2.388,2.388,0,0,0,0-2.347l-4.429-7.98a.812.812,0,0,1,0-.817L225.13,181.2c1.141-3.109-.181-6.086-1.21-7.752L214,191.249a2.455,2.455,0,0,0,.005,2.356Z" fill="#323a2f"/></g></svg>